<svg xmlns="http://www.w3.org/2000/svg" version="1.1" viewBox="64.89 263.6 470.15 72.55">
<path d="M0 0 C5.24225603 -0.68377253 9.81305629 -0.9496494 15 0 C18.88688606 3.14727616 21.31604239 6.82293985 24 11 C24.99183439 12.00809947 25.99236104 13.00769777 27 14 C28.91256832 16.26597383 30.73115198 18.60559956 32.5625 20.9375 C33.05685547 21.55818359 33.55121094 22.17886719 34.06054688 22.81835938 C36.37594192 25.76038366 38.52792477 28.52450877 40 32 C40.66 32 41.32 32 42 32 C43.32 33.98 44.64 35.96 46 38 C46.33 25.46 46.66 12.92 47 0 C52.61 0 58.22 0 64 0 C65 1 65 1 65.12025452 3.73976135 C65.11803391 4.96331833 65.11581329 6.18687531 65.11352539 7.44750977 C65.11367142 8.12065216 65.11381744 8.79379456 65.1139679 9.48733521 C65.11326878 11.72205784 65.10547652 13.9566981 65.09765625 16.19140625 C65.09579206 17.73697362 65.09436816 19.28254157 65.09336853 20.82810974 C65.0895434 24.90357077 65.07971317 28.97899637 65.06866455 33.05444336 C65.05845032 37.21011882 65.05387089 41.36579999 65.04882812 45.52148438 C65.03809089 53.68100587 65.02101454 61.84049853 65 70 C59.40408017 71.15656798 54.53264289 71.8442143 49 70 C45.3757527 66.77713514 42.77555141 62.95578589 40 59 C38.57928845 57.21566941 37.14174699 55.44460633 35.6875 53.6875 C34.95917969 52.79804688 34.23085938 51.90859375 33.48046875 50.9921875 C30.51166607 47.41092316 27.51539856 43.85457444 24.5 40.3125 C23.70662231 39.37506958 23.70662231 39.37506958 22.8972168 38.41870117 C21.62057149 36.92632016 20.31321145 35.46030819 19 34 C18.67 34 18.34 34 18 34 C17.67 45.88 17.34 57.76 17 70 C11.06 70 5.12 70 -1 70 C-1.02262656 61.75906003 -1.0409588 53.51814436 -1.05181217 45.27718163 C-1.05702223 41.45023821 -1.0640857 37.62331723 -1.07543945 33.79638672 C-1.08633515 30.10055955 -1.09229097 26.4047539 -1.09487724 22.7089119 C-1.09671947 21.30157762 -1.10031683 19.89424447 -1.10573006 18.4869194 C-1.11302913 16.51000882 -1.11340881 14.5330764 -1.11352539 12.55615234 C-1.115746 11.43252289 -1.11796661 10.30889343 -1.12025452 9.1512146 C-1.00078322 6.02052394 -0.58511337 3.07480216 0 0 Z " fill="#FCFCFB" transform="translate(341,265)"/>
<path d="M0 0 C3.81957813 2.71520656 6.99912566 5.57486037 9.62109375 9.5078125 C9.62109375 10.1678125 9.62109375 10.8278125 9.62109375 11.5078125 C10.28109375 11.8378125 10.94109375 12.1678125 11.62109375 12.5078125 C13.06621779 16.1206226 13.62109375 18.57469092 13.62109375 22.5078125 C14.28109375 22.8378125 14.94109375 23.1678125 15.62109375 23.5078125 C15.26567151 35.84096433 13.48330755 46.38161786 4.62109375 55.5078125 C-0.61351503 59.90692998 -4.60225733 62.43933518 -11.37890625 63.5078125 C-11.70890625 64.1678125 -12.03890625 64.8278125 -12.37890625 65.5078125 C-27.94189666 66.08840074 -39.88559029 65.40601039 -51.94140625 54.3828125 C-59.95336825 46.13990703 -61.85540655 36.42566905 -61.796875 25.29296875 C-60.89254109 17.10325321 -56.87018883 9.59063568 -51.37890625 3.5078125 C-50.71890625 3.5078125 -50.05890625 3.5078125 -49.37890625 3.5078125 C-49.37890625 2.8478125 -49.37890625 2.1878125 -49.37890625 1.5078125 C-48.43015625 1.0540625 -47.48140625 0.6003125 -46.50390625 0.1328125 C-43.37576946 -1.29457004 -43.37576946 -1.29457004 -41.37890625 -3.4921875 C-27.09548075 -8.7967646 -12.9109499 -8.09849403 0 0 Z M-39.12890625 16.3203125 C-43.05291303 21.87932211 -43.82638627 26.71622337 -42.8515625 33.3046875 C-41.55729371 39.33747757 -39.2458221 43.69892184 -34.37890625 47.5078125 C-28.14677536 50.69175264 -22.15259229 51.20411889 -15.37890625 49.5078125 C-10.04846254 46.74387872 -6.66052684 43.26329677 -4.12890625 37.8203125 C-2.36237056 30.0181132 -2.78526269 23.75753871 -6.7890625 16.71484375 C-9.47045882 12.99251225 -11.96504534 10.8738441 -16.37890625 9.5078125 C-26.2894135 8.25059387 -32.08793796 9.11932221 -39.12890625 16.3203125 Z " fill="#FCFCFA" transform="translate(316.37890625,270.4921875)"/>
<path d="M0 0 C1.61261719 0.06574219 1.61261719 0.06574219 3.2578125 0.1328125 C18.53250654 0.81001568 18.53250654 0.81001568 24.4375 4.4375 C25.27925781 4.93894531 26.12101562 5.44039063 26.98828125 5.95703125 C29.22898952 7.70617646 30.09747695 9.00793852 31.125 11.625 C31.785 11.625 32.445 11.625 33.125 11.625 C36.37163535 20.06356874 38.37407138 26.92118682 35.125 35.625 C31.40924272 43.04511653 26.78201528 47.39872047 19 50.375 C10.72158837 52.73843542 1.64957403 51.86696389 -6.875 51.625 C-6.74931641 52.80255859 -6.74931641 52.80255859 -6.62109375 54.00390625 C-6.51925781 55.05449219 -6.41742188 56.10507812 -6.3125 57.1875 C-6.20808594 58.22003906 -6.10367188 59.25257813 -5.99609375 60.31640625 C-5.875 63.625 -5.875 63.625 -6.875 70.625 C-12.815 70.625 -18.755 70.625 -24.875 70.625 C-25.51431507 65.51047941 -25.99888561 61.08117796 -25.98852539 56.02539062 C-25.98844986 54.78470825 -25.98837433 53.54402588 -25.98829651 52.26574707 C-25.98313522 50.95086304 -25.97797394 49.635979 -25.97265625 48.28125 C-25.97078788 46.90262911 -25.96936596 45.52400754 -25.96836853 44.14538574 C-25.96457635 40.541851 -25.95477478 36.93835748 -25.94366455 33.33483887 C-25.93337896 29.64771075 -25.92885569 25.96057588 -25.92382812 22.2734375 C-25.91314909 15.05727301 -25.89611299 7.84114231 -25.875 0.625 C-23.84390267 0.45278153 -21.81240711 0.28525672 -19.78076172 0.11962891 C-18.64951874 0.0258194 -17.51827576 -0.06799011 -16.35275269 -0.16464233 C-10.88301934 -0.49548827 -5.46802854 -0.26804061 0 0 Z M-6.875 15.625 C-6.875 22.555 -6.875 29.485 -6.875 36.625 C-4.19375 36.686875 -1.5125 36.74875 1.25 36.8125 C2.49934326 36.85346802 2.49934326 36.85346802 3.77392578 36.89526367 C8.6213373 36.94904669 11.95037836 36.35876609 16.125 33.625 C18.48411039 29.11191925 18.39045543 25.50604236 17.125 20.625 C14.85966753 17.75557887 13.60777163 16.78592388 10.125 15.625 C8.78974283 15.54526524 7.45087917 15.51728662 6.11328125 15.52734375 C5.43048096 15.52984131 4.74768066 15.53233887 4.04418945 15.53491211 C3.18398193 15.54401611 2.32377441 15.55312012 1.4375 15.5625 C-1.305625 15.583125 -4.04875 15.60375 -6.875 15.625 Z " fill="#FCFCFB" transform="translate(90.875,264.375)"/>
<path d="M0 0 C0.80179687 0.00451172 1.60359375 0.00902344 2.4296875 0.01367188 C4.41149006 0.02546832 6.39325433 0.04340395 8.375 0.0625 C9.6781685 2.39001955 10.96741462 4.72366784 12.25 7.0625 C12.61480469 7.71089844 12.97960937 8.35929687 13.35546875 9.02734375 C15.23844999 12.48518203 16.62951962 15.64994902 17.5078125 19.5 C17.79398437 20.675625 18.08015625 21.85125 18.375 23.0625 C19.035 23.3925 19.695 23.7225 20.375 24.0625 C20.87 25.5475 20.87 25.5475 21.375 27.0625 C22.50679688 26.485 23.63859375 25.9075 24.8046875 25.3125 C26.28635207 24.56229009 27.76812873 23.81230153 29.25 23.0625 C29.99636719 22.6809375 30.74273437 22.299375 31.51171875 21.90625 C32.22714844 21.5453125 32.94257813 21.184375 33.6796875 20.8125 C34.6694458 20.30976563 34.6694458 20.30976563 35.67919922 19.796875 C37.375 19.0625 37.375 19.0625 39.375 19.0625 C37.97991054 22.32110636 36.42331128 24.12660123 33.671875 26.33984375 C32.57166016 27.23413086 32.57166016 27.23413086 31.44921875 28.14648438 C30.68222656 28.75814453 29.91523438 29.36980469 29.125 30 C27.61973597 31.21737905 26.11452667 32.43482578 24.609375 33.65234375 C23.52366211 34.52415283 23.52366211 34.52415283 22.41601562 35.41357422 C20.62103611 36.86372872 18.84503676 38.3323115 17.078125 39.81640625 C14.88400405 41.63955588 12.67408673 43.37650306 10.375 45.0625 C7.951633 46.86048196 5.63014158 48.68574888 3.3125 50.625 C1.07950817 52.47790811 -1.11578572 54.11592929 -3.5 55.75 C-4.53125 56.513125 -5.5625 57.27625 -6.625 58.0625 C-6.625 58.7225 -6.625 59.3825 -6.625 60.0625 C-7.615 60.0625 -8.605 60.0625 -9.625 60.0625 C-9.955 60.7225 -10.285 61.3825 -10.625 62.0625 C-12.3783261 63.40327878 -14.1996267 64.61265893 -16.03125 65.84375 C-17.77149611 66.98979614 -17.77149611 66.98979614 -18.625 69.0625 C-21.39065382 69.98438461 -23.00783702 70.18035222 -25.85546875 70.16015625 C-26.65791016 70.15693359 -27.46035156 70.15371094 -28.28710938 70.15039062 C-29.12048828 70.14201172 -29.95386719 70.13363281 -30.8125 70.125 C-31.65748047 70.12048828 -32.50246094 70.11597656 -33.37304688 70.11132812 C-35.45706155 70.09955403 -37.54103977 70.0816189 -39.625 70.0625 C-39.0512783 66.74186836 -38.24676936 63.92067956 -36.8125 60.875 C-34.86427878 56.65975773 -33.1790254 52.38071677 -31.5546875 48.03125 C-30.625 46.0625 -30.625 46.0625 -28.625 45.0625 C-27.82103175 43.18517157 -27.82103175 43.18517157 -27.1875 40.9375 C-25.94788636 36.84323322 -24.3511598 32.97047341 -22.625 29.0625 C-22.21032471 28.12067871 -21.79564941 27.17885742 -21.3684082 26.20849609 C-19.40794477 21.76115164 -17.44395291 17.31537824 -15.4765625 12.87109375 C-14.75726563 11.24107422 -14.75726563 11.24107422 -14.0234375 9.578125 C-13.58692871 8.59102539 -13.15041992 7.60392578 -12.70068359 6.58691406 C-11.56301778 4.01150835 -11.56301778 4.01150835 -10.625 1.0625 C-7.31505287 -0.59247356 -3.63377 -0.03834335 0 0 Z M-0.625 20.0625 C-3.95902609 27.27070167 -6.82327683 34.6333406 -9.625 42.0625 C-5.63613514 40.81086205 -1.96781433 39.3466479 1.75 37.4375 C3.27625 36.65375 4.8025 35.87 6.375 35.0625 C4.395 30.1125 2.415 25.1625 0.375 20.0625 C0.045 20.0625 -0.285 20.0625 -0.625 20.0625 Z " fill="#F1CD0A" transform="translate(472.625,264.9375)"/>
<path d="M0 0 C5.94 0.33 11.88 0.66 18 1 C15.6877632 6.780592 13.3616727 12.30223467 9.625 17.3125 C5.48816782 22.87934824 2.37674796 29.1406004 -0.625 35.375 C-2.1217903 38.23250875 -3.93940105 40.52728127 -6 43 C-7.26954953 45.53909906 -7.09775336 47.28295332 -7.0625 50.12109375 C-7.05089844 51.64766602 -7.05089844 51.64766602 -7.0390625 53.20507812 C-7.01306803 55.35612036 -6.98702654 57.50716203 -6.9609375 59.65820312 C-6.94933594 61.18670898 -6.94933594 61.18670898 -6.9375 62.74609375 C-6.92589844 63.68122803 -6.91429687 64.6163623 -6.90234375 65.57983398 C-7 68 -7 68 -8 71 C-10.79134852 71.19425873 -13.58283687 71.38069517 -16.375 71.5625 C-17.1690625 71.61857422 -17.963125 71.67464844 -18.78125 71.73242188 C-24.7734375 72.11328125 -24.7734375 72.11328125 -27 71 C-27.495 57.14 -27.495 57.14 -28 43 C-28.66 42.67 -29.32 42.34 -30 42 C-31.11861444 40.20035584 -32.16667654 38.35686209 -33.1875 36.5 C-37.92222121 27.98401323 -42.99482467 19.6727769 -48.07104492 11.35742188 C-48.7076001 10.30619141 -49.34415527 9.25496094 -50 8.171875 C-50.5775 7.2240918 -51.155 6.27630859 -51.75 5.29980469 C-53 3 -53 3 -53 1 C-49.91738544 0.8253603 -46.83604167 0.71905933 -43.75 0.625 C-42.87730469 0.57472656 -42.00460938 0.52445312 -41.10546875 0.47265625 C-38.60393889 0.41536931 -36.43987138 0.43686595 -34 1 C-30 5.44311377 -30 5.44311377 -30 9 C-29.34 9 -28.68 9 -28 9 C-25 15 -25 15 -23.9375 17.25 C-23.01136225 19.18156409 -23.01136225 19.18156409 -21 21 C-19.58114017 23.28881768 -18.3084263 25.64483265 -17 28 C-15.41201042 25.50285607 -13.82956901 23.00246326 -12.25 20.5 C-11.58484375 19.45585937 -11.58484375 19.45585937 -10.90625 18.390625 C-7.96252703 13.71530028 -5.39906948 8.97750864 -3 4 C-2.34 4 -1.68 4 -1 4 C-0.67 2.68 -0.34 1.36 0 0 Z " fill="#FCFCFB" transform="translate(179,264)"/>
<path d="M0 0 C5.94 0 11.88 0 18 0 C18 18.15 18 36.3 18 55 C29.22 55 40.44 55 52 55 C52 59.95 52 64.9 52 70 C34.84 70 17.68 70 0 70 C0 46.9 0 23.8 0 0 Z " fill="#FBFCFA" transform="translate(201,265)"/>
<path d="M0 0 C1.58206057 0.00667536 3.16410534 0.0186375 4.74609375 0.03515625 C5.55240234 0.03966797 6.35871094 0.04417969 7.18945312 0.04882812 C9.18753131 0.06065107 11.18557158 0.07858711 13.18359375 0.09765625 C14.1188516 4.02067929 14.27570106 7.60484933 14.20532227 11.63208008 C14.17517784 13.58353691 14.17517784 13.58353691 14.14442444 15.57441711 C14.11723206 16.98450948 14.08992115 18.39459956 14.0625 19.8046875 C14.03817979 21.25484956 14.0143372 22.70501971 13.99095154 24.15519714 C13.92829959 27.96106209 13.85918011 31.76678288 13.78869629 35.57250977 C13.71784158 39.46038277 13.65312738 43.34835751 13.58789062 47.23632812 C13.45912195 54.85688575 13.32295035 62.47728354 13.18359375 70.09765625 C7.24359375 70.09765625 1.30359375 70.09765625 -4.81640625 70.09765625 C-4.83895924 61.11844519 -4.85732247 52.1392528 -4.86821842 43.16001987 C-4.87344676 38.99102797 -4.88054351 34.82205638 -4.8918457 30.65307617 C-4.90267633 26.63307939 -4.90868346 22.6131022 -4.91128349 18.59309196 C-4.91313743 17.0560265 -4.91675744 15.51896216 -4.92213631 13.98190498 C-4.92934909 11.83630138 -4.93039709 9.6907797 -4.92993164 7.54516602 C-4.93215225 6.32160904 -4.93437286 5.09805206 -4.93666077 3.8374176 C-4.75009267 -0.41316744 -4.44571436 0.11375932 0 0 Z " fill="#F0CD0D" transform="translate(520.81640625,264.90234375)"/>
<path d="M0 0 C0.80179687 0.00451172 1.60359375 0.00902344 2.4296875 0.01367188 C4.41149006 0.02546832 6.39325433 0.04340395 8.375 0.0625 C9.6781685 2.39001955 10.96741462 4.72366784 12.25 7.0625 C12.61480469 7.71089844 12.97960937 8.35929687 13.35546875 9.02734375 C15.23844999 12.48518203 16.62951962 15.64994902 17.5078125 19.5 C17.79398437 20.675625 18.08015625 21.85125 18.375 23.0625 C19.035 23.3925 19.695 23.7225 20.375 24.0625 C20.87 25.5475 20.87 25.5475 21.375 27.0625 C22.50679688 26.485 23.63859375 25.9075 24.8046875 25.3125 C26.28635207 24.56229009 27.76812873 23.81230153 29.25 23.0625 C29.99636719 22.6809375 30.74273437 22.299375 31.51171875 21.90625 C32.22714844 21.5453125 32.94257813 21.184375 33.6796875 20.8125 C34.6694458 20.30976563 34.6694458 20.30976563 35.67919922 19.796875 C37.375 19.0625 37.375 19.0625 39.375 19.0625 C37.97991054 22.32110636 36.42331128 24.12660123 33.671875 26.33984375 C32.57166016 27.23413086 32.57166016 27.23413086 31.44921875 28.14648438 C30.68222656 28.75814453 29.91523438 29.36980469 29.125 30 C27.61973597 31.21737905 26.11452667 32.43482578 24.609375 33.65234375 C23.52366211 34.52415283 23.52366211 34.52415283 22.41601562 35.41357422 C20.62103611 36.86372872 18.84503676 38.3323115 17.078125 39.81640625 C14.88400405 41.63955588 12.67408673 43.37650306 10.375 45.0625 C7.951633 46.86048196 5.63014158 48.68574888 3.3125 50.625 C1.07950817 52.47790811 -1.11578572 54.11592929 -3.5 55.75 C-4.53125 56.513125 -5.5625 57.27625 -6.625 58.0625 C-6.625 58.7225 -6.625 59.3825 -6.625 60.0625 C-7.615 60.0625 -8.605 60.0625 -9.625 60.0625 C-9.955 60.7225 -10.285 61.3825 -10.625 62.0625 C-12.3783261 63.40327878 -14.1996267 64.61265893 -16.03125 65.84375 C-17.77149611 66.98979614 -17.77149611 66.98979614 -18.625 69.0625 C-21.39065382 69.98438461 -23.00783702 70.18035222 -25.85546875 70.16015625 C-26.65791016 70.15693359 -27.46035156 70.15371094 -28.28710938 70.15039062 C-29.12048828 70.14201172 -29.95386719 70.13363281 -30.8125 70.125 C-31.65748047 70.12048828 -32.50246094 70.11597656 -33.37304688 70.11132812 C-35.45706155 70.09955403 -37.54103977 70.0816189 -39.625 70.0625 C-39.04807043 66.72912916 -38.23727468 63.87775229 -36.8125 60.8125 C-36.46058594 60.04550781 -36.10867188 59.27851563 -35.74609375 58.48828125 C-35.37613281 57.68777344 -35.00617188 56.88726562 -34.625 56.0625 C-33.87239709 54.37615925 -33.12228482 52.68870413 -32.375 51 C-31.79166667 49.6875 -31.20833333 48.375 -30.625 47.0625 C-29.965 47.0625 -29.305 47.0625 -28.625 47.0625 C-29.07329514 49.04396451 -29.53392498 51.02264211 -30 53 C-30.25523437 54.10214844 -30.51046875 55.20429688 -30.7734375 56.33984375 C-31.05445313 57.23832031 -31.33546875 58.13679688 -31.625 59.0625 C-32.615 59.5575 -32.615 59.5575 -33.625 60.0625 C-34.52843684 61.94513881 -34.52843684 61.94513881 -35.25 64.125 C-35.930625 66.0740625 -35.930625 66.0740625 -36.625 68.0625 C-31.675 67.7325 -26.725 67.4025 -21.625 67.0625 C-20.965 65.4125 -20.305 63.7625 -19.625 62.0625 C-17.49609375 60.76953125 -17.49609375 60.76953125 -15.0625 59.875 C-11.62779693 58.79306087 -11.62779693 58.79306087 -9.625 56.0625 C-8.861875 55.629375 -8.09875 55.19625 -7.3125 54.75 C-4.4694493 53.17372419 -4.4694493 53.17372419 -2.5 50.375 C-1.88125 49.611875 -1.2625 48.84875 -0.625 48.0625 C0.365 48.0625 1.355 48.0625 2.375 48.0625 C2.375 47.4025 2.375 46.7425 2.375 46.0625 C3.014375 45.794375 3.65375 45.52625 4.3125 45.25 C6.70631686 44.17582248 6.70631686 44.17582248 7.375 41.0625 C9.69479381 40.03148053 12.02929915 39.03313483 14.375 38.0625 C15.39301357 37.08084406 16.3996803 36.08658568 17.375 35.0625 C18.365 35.0625 19.355 35.0625 20.375 35.0625 C20.375 34.4025 20.375 33.7425 20.375 33.0625 C21.035 33.0625 21.695 33.0625 22.375 33.0625 C22.375 32.0725 22.375 31.0825 22.375 30.0625 C21.055 29.7325 19.735 29.4025 18.375 29.0625 C18.375 28.4025 18.375 27.7425 18.375 27.0625 C17.715 27.0625 17.055 27.0625 16.375 27.0625 C16.375 25.7425 16.375 24.4225 16.375 23.0625 C15.385 22.7325 14.395 22.4025 13.375 22.0625 C13.4575 21.4025 13.54 20.7425 13.625 20.0625 C13.32928501 16.51392009 12.15158985 14.30027503 10.4453125 11.22265625 C9.15503853 8.61856317 8.29402708 5.81958123 7.375 3.0625 C2.425 3.3925 -2.525 3.7225 -7.625 4.0625 C-8.285 6.3725 -8.945 8.6825 -9.625 11.0625 C-10.285 11.0625 -10.945 11.0625 -11.625 11.0625 C-11.521875 11.866875 -11.41875 12.67125 -11.3125 13.5 C-11.7474377 18.45828974 -14.03145419 21.89430138 -16.625 26.0625 C-17.285 26.0625 -17.945 26.0625 -18.625 26.0625 C-18.81835938 26.76117188 -19.01171875 27.45984375 -19.2109375 28.1796875 C-19.60152344 29.54480469 -19.60152344 29.54480469 -20 30.9375 C-20.38285156 32.29488281 -20.38285156 32.29488281 -20.7734375 33.6796875 C-21.625 36.0625 -21.625 36.0625 -23.625 38.0625 C-24.51278692 40.02738831 -24.51278692 40.02738831 -25.25 42.1875 C-25.51039063 42.91195312 -25.77078125 43.63640625 -26.0390625 44.3828125 C-26.32910156 45.21425781 -26.32910156 45.21425781 -26.625 46.0625 C-27.945 45.7325 -29.265 45.4025 -30.625 45.0625 C-29.965 45.0625 -29.305 45.0625 -28.625 45.0625 C-28.44324219 44.49402344 -28.26148438 43.92554688 -28.07421875 43.33984375 C-27.82285156 42.56769531 -27.57148438 41.79554688 -27.3125 41 C-27.06886719 40.24589844 -26.82523437 39.49179687 -26.57421875 38.71484375 C-23.42269878 29.90874475 -19.26005227 21.41790013 -15.4765625 12.87109375 C-14.75726563 11.24107422 -14.75726563 11.24107422 -14.0234375 9.578125 C-13.58692871 8.59102539 -13.15041992 7.60392578 -12.70068359 6.58691406 C-11.56301778 4.01150835 -11.56301778 4.01150835 -10.625 1.0625 C-7.31505287 -0.59247356 -3.63377 -0.03834335 0 0 Z " fill="#EBD33D" transform="translate(472.625,264.9375)"/>
<path d="M0 0 C2.25958957 2.82611491 3.85053891 5.5692598 5.3125 8.875 C5.73660156 9.83277344 6.16070312 10.79054688 6.59765625 11.77734375 C7.06042969 12.84082031 7.52320313 13.90429688 8 15 C8.26280762 15.59828613 8.52561523 16.19657227 8.79638672 16.81298828 C13.80558182 28.22232726 13.80558182 28.22232726 15 33 C8.73 33 2.46 33 -4 33 C-6.53393646 28.5656112 -8.81071109 24.50753868 -10.8125 19.875 C-11.25207031 18.88242187 -11.69164062 17.88984375 -12.14453125 16.8671875 C-13.10055046 13.66299528 -13.17187038 12.11801226 -12 9 C-10.29296875 7.3046875 -10.29296875 7.3046875 -8.1875 5.875 C-7.50042969 5.39804687 -6.81335938 4.92109375 -6.10546875 4.4296875 C-5.41066406 3.95789063 -4.71585937 3.48609375 -4 3 C-2.66196717 2.00629686 -1.3272243 1.00809396 0 0 Z " fill="#F1CD09" transform="translate(497,302)"/>
<path d="M0 0 C1.58206057 0.00667536 3.16410534 0.0186375 4.74609375 0.03515625 C5.55240234 0.03966797 6.35871094 0.04417969 7.18945312 0.04882812 C9.18753131 0.06065107 11.18557158 0.07858711 13.18359375 0.09765625 C14.1188516 4.02067929 14.27570106 7.60484933 14.20532227 11.63208008 C14.17517784 13.58353691 14.17517784 13.58353691 14.14442444 15.57441711 C14.11723206 16.98450948 14.08992115 18.39459956 14.0625 19.8046875 C14.03817979 21.25484956 14.0143372 22.70501971 13.99095154 24.15519714 C13.92829959 27.96106209 13.85918011 31.76678288 13.78869629 35.57250977 C13.71784158 39.46038277 13.65312738 43.34835751 13.58789062 47.23632812 C13.45912195 54.85688575 13.32295035 62.47728354 13.18359375 70.09765625 C7.24359375 70.09765625 1.30359375 70.09765625 -4.81640625 70.09765625 C-4.83895924 61.11844519 -4.85732247 52.1392528 -4.86821842 43.16001987 C-4.87344676 38.99102797 -4.88054351 34.82205638 -4.8918457 30.65307617 C-4.90267633 26.63307939 -4.90868346 22.6131022 -4.91128349 18.59309196 C-4.91313743 17.0560265 -4.91675744 15.51896216 -4.92213631 13.98190498 C-4.92934909 11.83630138 -4.93039709 9.6907797 -4.92993164 7.54516602 C-4.93215225 6.32160904 -4.93437286 5.09805206 -4.93666077 3.8374176 C-4.75009267 -0.41316744 -4.44571436 0.11375932 0 0 Z M-2.81640625 2.09765625 C-2.81640625 23.87765625 -2.81640625 45.65765625 -2.81640625 68.09765625 C1.80359375 68.09765625 6.42359375 68.09765625 11.18359375 68.09765625 C11.18359375 46.31765625 11.18359375 24.53765625 11.18359375 2.09765625 C6.56359375 2.09765625 1.94359375 2.09765625 -2.81640625 2.09765625 Z " fill="#F0DA49" transform="translate(520.81640625,264.90234375)"/>
<path d="M0 0 C2.25958957 2.82611491 3.85053891 5.5692598 5.3125 8.875 C5.73660156 9.83277344 6.16070312 10.79054688 6.59765625 11.77734375 C7.06042969 12.84082031 7.52320313 13.90429688 8 15 C8.26280762 15.59828613 8.52561523 16.19657227 8.79638672 16.81298828 C13.80558182 28.22232726 13.80558182 28.22232726 15 33 C8.73 33 2.46 33 -4 33 C-6.53393646 28.5656112 -8.81071109 24.50753868 -10.8125 19.875 C-11.25207031 18.88242187 -11.69164062 17.88984375 -12.14453125 16.8671875 C-13.10055046 13.66299528 -13.17187038 12.11801226 -12 9 C-10.29296875 7.3046875 -10.29296875 7.3046875 -8.1875 5.875 C-7.50042969 5.39804687 -6.81335938 4.92109375 -6.10546875 4.4296875 C-5.41066406 3.95789063 -4.71585937 3.48609375 -4 3 C-2.66196717 2.00629686 -1.3272243 1.00809396 0 0 Z M-6 7 C-8.5 9.66666667 -8.5 9.66666667 -10 13 C-9.40695514 16.29469369 -8.50084325 18.332209 -6.5 21 C-4.63022702 23.49303064 -3.97944054 26.06167837 -3 29 C-0.47524538 30.26237731 1.31200466 30.09856404 4.125 30.0625 C5.03507812 30.05347656 5.94515625 30.04445313 6.8828125 30.03515625 C7.58148438 30.02355469 8.28015625 30.01195312 9 30 C10.25348607 27.04893565 10.01044806 26.02593537 8.78515625 22.984375 C7.93244141 21.38335937 7.93244141 21.38335937 7.0625 19.75 C6.21365234 18.13351562 6.21365234 18.13351562 5.34765625 16.484375 C4.90292969 15.66453125 4.45820313 14.8446875 4 14 C3.34 14 2.68 14 2 14 C2.04125 13.071875 2.0825 12.14375 2.125 11.1875 C2.27136339 7.84190281 2.27136339 7.84190281 0 5 C-2.64566409 5 -3.76335858 5.55276143 -6 7 Z " fill="#EAD23F" transform="translate(497,302)"/>
<path d="M0 0 C2 3 2 3 2 5 C2.66 5.33 3.32 5.66 4 6 C4.33 6.99 4.66 7.98 5 9 C6.13179688 8.4225 7.26359375 7.845 8.4296875 7.25 C9.91135207 6.49979009 11.39312873 5.74980153 12.875 5 C13.62136719 4.6184375 14.36773437 4.236875 15.13671875 3.84375 C15.85214844 3.4828125 16.56757813 3.121875 17.3046875 2.75 C18.2944458 2.24726563 18.2944458 2.24726563 19.30419922 1.734375 C21 1 21 1 23 1 C21.67435047 4.0381839 20.37095575 5.78945198 17.7421875 7.796875 C16.80439453 8.52197266 16.80439453 8.52197266 15.84765625 9.26171875 C15.19667969 9.75285156 14.54570312 10.24398438 13.875 10.75 C13.21628906 11.25660156 12.55757813 11.76320313 11.87890625 12.28515625 C10.25785888 13.53030858 8.62961787 14.76608569 7 16 C6.67 14.68 6.34 13.36 6 12 C4.68 11.67 3.36 11.34 2 11 C2 10.34 2 9.68 2 9 C1.34 9 0.68 9 0 9 C0 7.68 0 6.36 0 5 C-0.99 4.67 -1.98 4.34 -3 4 C-1 1 -1 1 0 0 Z " fill="#E9CF32" transform="translate(489,283)"/>
<path d="M0 0 C2.52259061 1.97420135 2.9929808 2.96745642 3.6875 6.1875 C3.790625 7.115625 3.89375 8.04375 4 9 C7.96 9 11.92 9 16 9 C15.67 6.36 15.34 3.72 15 1 C15.66 0.67 16.32 0.34 17 0 C17.84069415 1.60032137 18.67231505 3.20541171 19.5 4.8125 C19.9640625 5.70582031 20.428125 6.59914063 20.90625 7.51953125 C22 10 22 10 22 13 C15.73 13 9.46 13 3 13 C-1 6 -1 6 -0.75 2.5625 C-0.5025 1.716875 -0.255 0.87125 0 0 Z " fill="#E5CA2F" transform="translate(490,322)"/>
<path d="M0 0 C1.35439668 2.70879335 1.06501451 5.00933268 1 8 C1.66 8 2.32 8 3 8 C3.33 10.97 3.66 13.94 4 17 C3.34 17 2.68 17 2 17 C1.73445313 16.39671875 1.46890625 15.7934375 1.1953125 15.171875 C0.84210938 14.37265625 0.48890625 13.5734375 0.125 12.75 C-0.22304688 11.96109375 -0.57109375 11.1721875 -0.9296875 10.359375 C-1.90214201 8.21571615 -2.94729482 6.10541037 -4 4 C-5.98 8.95 -7.96 13.9 -10 19 C-10.66 19 -11.32 19 -12 19 C-11.46864497 13.79272072 -10.11755894 9.76450762 -8 5 C-7.814375 4.05125 -7.62875 3.1025 -7.4375 2.125 C-7.293125 1.42375 -7.14875 0.7225 -7 0 C-4.30234372 -1.34882814 -2.84835666 -0.80338265 0 0 Z " fill="#EACF2F" transform="translate(476,282)"/>
<path d="M0 0 C0 0.66 0 1.32 0 2 C-0.68707031 2.25394531 -1.37414062 2.50789063 -2.08203125 2.76953125 C-2.98308594 3.11371094 -3.88414062 3.45789063 -4.8125 3.8125 C-5.70582031 4.14894531 -6.59914063 4.48539062 -7.51953125 4.83203125 C-10.02566074 5.83189698 -10.02566074 5.83189698 -11.57421875 7.63671875 C-13 9 -13 9 -17 9 C-17 8.34 -17 7.68 -17 7 C-17.99 7 -18.98 7 -20 7 C-19 4 -19 4 -17 1 C-16.34 1 -15.68 1 -15 1 C-14.67 2.32 -14.34 3.64 -14 5 C-13.32453125 4.6390625 -12.6490625 4.278125 -11.953125 3.90625 C-11.06109375 3.4421875 -10.1690625 2.978125 -9.25 2.5 C-8.36828125 2.0359375 -7.4865625 1.571875 -6.578125 1.09375 C-4 0 -4 0 0 0 Z " fill="#EFD433" transform="translate(479,301)"/>
<path d="M0 0 C0.66 0 1.32 0 2 0 C0.25 7.625 0.25 7.625 -2 11 C-2.28875 11.86625 -2.5775 12.7325 -2.875 13.625 C-4.29628797 17.88886392 -6.13082617 21.91685328 -8 26 C-9.32 25.67 -10.64 25.34 -12 25 C-11.34 25 -10.68 25 -10 25 C-9.72736328 24.14728516 -9.72736328 24.14728516 -9.44921875 23.27734375 C-7.86009061 18.39586808 -6.09506384 13.69294301 -4 9 C-3.64421875 8.19691406 -3.2884375 7.39382813 -2.921875 6.56640625 C-1.95141003 4.3760258 -0.97714151 2.18740815 0 0 Z " fill="#F0D84A" transform="translate(454,285)"/>
<path d="M0 0 C0.66 0 1.32 0 2 0 C1.55170486 1.98146451 1.09107502 3.96014211 0.625 5.9375 C0.36976563 7.03964844 0.11453125 8.14179688 -0.1484375 9.27734375 C-0.42945313 10.17582031 -0.71046875 11.07429688 -1 12 C-1.99 12.495 -1.99 12.495 -3 13 C-4.62734766 16.34510352 -5 18.18835834 -5 22 C-6.32 22.33 -7.64 22.66 -9 23 C-8.34349881 17.91211576 -6.12794566 13.60437023 -4 9 C-3.24739709 7.31365925 -2.49728482 5.62620413 -1.75 3.9375 C-1.16666667 2.625 -0.58333333 1.3125 0 0 Z " fill="#ECD650" transform="translate(442,312)"/>
<path d="M0 0 C1.6852084 4.07679159 0.16939007 6.83075593 -1.4375 10.75 C-1.91058594 11.92046875 -2.38367188 13.0909375 -2.87109375 14.296875 C-3.24363281 15.18890625 -3.61617188 16.0809375 -4 17 C-4.66 17 -5.32 17 -6 17 C-5.51947285 11.35380599 -4.17262158 4.17262158 0 0 Z " fill="#EDD43E" transform="translate(470,284)"/>
<path d="M0 0 C-1.5885342 4.28904235 -4.43127368 6.32345526 -8 9 C-8.66 9 -9.32 9 -10 9 C-10 8.34 -10 7.68 -10 7 C-10.66 7 -11.32 7 -12 7 C-12 6.34 -12 5.68 -12 5 C-10.37750059 4.16180842 -8.75191503 3.3295884 -7.125 2.5 C-6.22007812 2.0359375 -5.31515625 1.571875 -4.3828125 1.09375 C-2 0 -2 0 0 0 Z " fill="#E7D673" transform="translate(512,284)"/>
<path d="M0 0 C0.66 0 1.32 0 2 0 C2.33 1.98 2.66 3.96 3 6 C8.94 6.33 14.88 6.66 21 7 C21 7.33 21 7.66 21 8 C14.73 8 8.46 8 2 8 C1.01 6.02 0.02 4.04 -1 2 C-0.67 1.34 -0.34 0.68 0 0 Z " fill="#E9D55A" transform="translate(490,326)"/>
<path d="M0 0 C1.37217815 3.70488102 0.43993222 5.4425204 -1 9 C-1.16757757 12.20870233 -1.16757757 12.20870233 -1 15 C-1.99 14.67 -2.98 14.34 -4 14 C-4.33 15.32 -4.66 16.64 -5 18 C-5.37425983 12.88511563 -4.17541386 9.60183702 -2 5 C-1.32723284 3.3357865 -0.65793165 1.67013418 0 0 Z " fill="#EDCE1C" transform="translate(466,288)"/>
<path d="M0 0 C0.598125 0.268125 1.19625 0.53625 1.8125 0.8125 C2.1425 1.8025 2.4725 2.7925 2.8125 3.8125 C1.4925 4.8025 0.1725 5.7925 -1.1875 6.8125 C-1.8475 6.4825 -2.5075 6.1525 -3.1875 5.8125 C-2.8575 5.1525 -2.5275 4.4925 -2.1875 3.8125 C-3.5075 3.8125 -4.8275 3.8125 -6.1875 3.8125 C-6.1875 3.1525 -6.1875 2.4925 -6.1875 1.8125 C-3.93528616 0.44508445 -2.66192242 -0.22816478 0 0 Z " fill="#ECD64F" transform="translate(500.1875,290.1875)"/>
<path d="M0 0 C0 0.66 0 1.32 0 2 C-1.6232687 2.6708712 -3.24867578 3.33657029 -4.875 4 C-6.23238281 4.556875 -6.23238281 4.556875 -7.6171875 5.125 C-10 6 -10 6 -12 6 C-12 5.34 -12 4.68 -12 4 C-10.75539217 3.32332002 -9.50403104 2.65905281 -8.25 2 C-7.55390625 1.62875 -6.8578125 1.2575 -6.140625 0.875 C-4 0 -4 0 0 0 Z " fill="#EBD243" transform="translate(479,301)"/>
<path d="M0 0 C0.66 0 1.32 0 2 0 C2.33 0.99 2.66 1.98 3 3 C0.31158141 5.25245881 -1.64641875 6.88213958 -5 8 C-5 5 -5 5 -3 2 C-2.01 2 -1.02 2 0 2 C0 1.34 0 0.68 0 0 Z " fill="#E6CB31" transform="translate(475,311)"/>
<path d="M0 0 C0.66 0 1.32 0 2 0 C1.57630928 1.6286551 1.1355377 3.25287378 0.6875 4.875 C0.44386719 5.77992188 0.20023437 6.68484375 -0.05078125 7.6171875 C-1 10 -1 10 -4 12 C-3.45660208 7.43545749 -2.20536179 4.0271824 0 0 Z " fill="#EFD84C" transform="translate(460,272)"/>
<path d="M0 0 C-0.8125 1.9375 -0.8125 1.9375 -2 4 C-2.99 4.33 -3.98 4.66 -5 5 C-5.66 4.67 -6.32 4.34 -7 4 C-7 3.01 -7 2.02 -7 1 C-3.375 -1.125 -3.375 -1.125 0 0 Z " fill="#E5C822" transform="translate(460,326)"/>
<path d="M0 0 C0.33 0 0.66 0 1 0 C1.39169887 2.66355234 1.40564529 4.39224373 -0.11328125 6.66796875 C-1.36389317 8.1510888 -2.67864514 9.57954352 -4 11 C-4.66 10.34 -5.32 9.68 -6 9 C-4.73046875 7.53515625 -3.4609375 6.0703125 -2.19140625 4.60546875 C-0.79128769 2.89287029 -0.79128769 2.89287029 0 0 Z " fill="#F5F6F4" transform="translate(311,308)"/>
<path d="M0 0 C0.6875 2.0625 0.6875 2.0625 1 4 C0.34 3.67 -0.32 3.34 -1 3 C-1 2.34 -1 1.68 -1 1 C-1.99 1.99 -2.98 2.98 -4 4 C-4.99 3.67 -5.98 3.34 -7 3 C-6.67 2.01 -6.34 1.02 -6 0 C-3 -1 -3 -1 0 0 Z " fill="#ECCF18" transform="translate(498,308)"/>
<path d="M0 0 C0.66 0 1.32 0 2 0 C2.99 2.97 3.98 5.94 5 9 C4.01 9.33 3.02 9.66 2 10 C2 7.69 2 5.38 2 3 C1.34 3 0.68 3 0 3 C0 2.01 0 1.02 0 0 Z " fill="#F2D216" transform="translate(501,319)"/>
<path d="M0 0 C1.98 0.495 1.98 0.495 4 1 C4 1.99 4 2.98 4 4 C3.34 4 2.68 4 2 4 C1.67 4.66 1.34 5.32 1 6 C0.34 5.67 -0.32 5.34 -1 5 C-0.67 3.35 -0.34 1.7 0 0 Z " fill="#EFD318" transform="translate(491,294)"/>
<path d="M0 0 C0.33 0 0.66 0 1 0 C1.33 2.97 1.66 5.94 2 9 C0.02 9.99 0.02 9.99 -2 11 C-1.34 7.37 -0.68 3.74 0 0 Z " fill="#F1F1EE" transform="translate(109,287)"/>
<path d="M0 0 C0.66 0.33 1.32 0.66 2 1 C1.67 2.65 1.34 4.3 1 6 C-0.32 5.34 -1.64 4.68 -3 4 C-2.01 2.68 -1.02 1.36 0 0 Z " fill="#F5F6F3" transform="translate(277,327)"/>
<path d="M0 0 C0.33 0.66 0.66 1.32 1 2 C1.66 2 2.32 2 3 2 C3.33 3.98 3.66 5.96 4 8 C3.01 8.495 3.01 8.495 2 9 C0.50178941 5.62902617 0 3.79557881 0 0 Z " fill="#F0D948" transform="translate(502,315)"/>
<path d="M0 0 C-1.0975223 2.99324263 -1.67682892 3.84610901 -4.625 5.25 C-5.40875 5.4975 -6.1925 5.745 -7 6 C-5.52522876 2.59668175 -4.14385429 0 0 0 Z " fill="#F3DA47" transform="translate(484,307)"/>
<path d="M0 0 C2 3 2 3 1.625 5.6875 C1.41875 6.450625 1.2125 7.21375 1 8 C0.34 8 -0.32 8 -1 8 C-1.33 8.66 -1.66 9.32 -2 10 C-2.22036864 6.14354879 -1.60355101 3.50776784 0 0 Z " fill="#F0F0EC" transform="translate(126,286)"/>
<path d="M0 0 C-0.8125 1.9375 -0.8125 1.9375 -2 4 C-2.99 4.33 -3.98 4.66 -5 5 C-5.99 4.34 -6.98 3.68 -8 3 C-2.25 0 -2.25 0 0 0 Z " fill="#E0CD6B" transform="translate(512,284)"/>
<path d="M0 0 C0.66 0 1.32 0 2 0 C2.12375 0.969375 2.2475 1.93875 2.375 2.9375 C2.684375 4.4534375 2.684375 4.4534375 3 6 C3.66 6.33 4.32 6.66 5 7 C4.01 7.33 3.02 7.66 2 8 C0.93224776 6.03533587 -0.06553465 4.03144641 -1 2 C-0.67 1.34 -0.34 0.68 0 0 Z " fill="#EBD140" transform="translate(490,326)"/>
<path d="M0 0 C0.66 0.33 1.32 0.66 2 1 C2 3.31 2 5.62 2 8 C1.01 7.67 0.02 7.34 -1 7 C-1.04254356 5.00045254 -1.04080783 2.99958364 -1 1 C-0.67 0.67 -0.34 0.34 0 0 Z " fill="#F1F2ED" transform="translate(388,298)"/>
<path d="" fill="#EFEFEE" transform="translate(0,0)"/>
<path d="" fill="#FDFDFD" transform="translate(0,0)"/>
<path d="" fill="#F6F7F5" transform="translate(0,0)"/>
<path d="M0 0 C2 1 2 1 2 1 Z " fill="#DEBF17" transform="translate(482,325)"/>
<path d="M0 0 C2 1 2 1 2 1 Z " fill="#ECECEA" transform="translate(333,306)"/>
<path d="" fill="#FBFBF9" transform="translate(0,0)"/>
<path d="" fill="#E2C216" transform="translate(0,0)"/>
<path d="" fill="#E7E6E0" transform="translate(0,0)"/>
<path d="" fill="#EFEDE1" transform="translate(0,0)"/>
<path d="" fill="#E6D05A" transform="translate(0,0)"/>
<path d="" fill="#EBEBEA" transform="translate(0,0)"/>
<path d="" fill="#F7F9F5" transform="translate(0,0)"/>
<path d="" fill="#F3F2E6" transform="translate(0,0)"/>
<path d="" fill="#DFC84B" transform="translate(0,0)"/>
<path d="" fill="#E2E2E1" transform="translate(0,0)"/>
<path d="" fill="#FDFCF6" transform="translate(0,0)"/>
<path d="" fill="#F7F8F5" transform="translate(0,0)"/>
<path d="" fill="#F4F4F2" transform="translate(0,0)"/>
<path d="" fill="#FBFAF7" transform="translate(0,0)"/>
<path d="" fill="#EDD546" transform="translate(0,0)"/>
<path d="" fill="#E2E2E1" transform="translate(0,0)"/>
<path d="" fill="#E2C629" transform="translate(0,0)"/>
<path d="" fill="#EAD244" transform="translate(0,0)"/>
<path d="" fill="#FEFEFC" transform="translate(0,0)"/>
<path d="" fill="#F1F1F0" transform="translate(0,0)"/>
<path d="" fill="#EBD244" transform="translate(0,0)"/>
<path d="" fill="#FBFBFA" transform="translate(0,0)"/>
<path d="" fill="#E2E2E0" transform="translate(0,0)"/>
<path d="" fill="#EDCE2B" transform="translate(0,0)"/>
<path d="" fill="#DEC017" transform="translate(0,0)"/>
<path d="" fill="#EFEFED" transform="translate(0,0)"/>
<path d="" fill="#DBCA6B" transform="translate(0,0)"/>
<path d="" fill="#FCFDFA" transform="translate(0,0)"/>
<path d="" fill="#EFD63B" transform="translate(0,0)"/>
<path d="" fill="#E7C718" transform="translate(0,0)"/>
<path d="" fill="#E1E1E0" transform="translate(0,0)"/>
<path d="" fill="#E3C418" transform="translate(0,0)"/>
<path d="" fill="#E3C318" transform="translate(0,0)"/>
<path d="" fill="#F6F7F4" transform="translate(0,0)"/>
<path d="" fill="#DBCA6B" transform="translate(0,0)"/>
<path d="" fill="#EED338" transform="translate(0,0)"/>
<path d="" fill="#EEDA6B" transform="translate(0,0)"/>
<path d="" fill="#ECECEB" transform="translate(0,0)"/>
<path d="" fill="#E8C817" transform="translate(0,0)"/>
<path d="" fill="#EDD542" transform="translate(0,0)"/>
<path d="" fill="#F3D637" transform="translate(0,0)"/>
<path d="" fill="#D4B716" transform="translate(0,0)"/>
<path d="" fill="#E6CA30" transform="translate(0,0)"/>
<path d="" fill="#ECECEB" transform="translate(0,0)"/>
<path d="" fill="#F4F4F3" transform="translate(0,0)"/>
<path d="" fill="#FCFCFB" transform="translate(0,0)"/>
<path d="" fill="#FDFDFD" transform="translate(0,0)"/>
<path d="" fill="#F1F1EF" transform="translate(0,0)"/>
<path d="" fill="#E1E1E0" transform="translate(0,0)"/>
<path d="" fill="#EBEBEA" transform="translate(0,0)"/>
<path d="" fill="#E1E1DF" transform="translate(0,0)"/>
<path d="" fill="#DBCA6C" transform="translate(0,0)"/>
<path d="" fill="#E2E2E0" transform="translate(0,0)"/>
<path d="" fill="#EBEBE9" transform="translate(0,0)"/>
<path d="" fill="#E2E2E1" transform="translate(0,0)"/>
<path d="" fill="#EBEBEA" transform="translate(0,0)"/>
<path d="" fill="#E1E1E0" transform="translate(0,0)"/>
<path d="" fill="#E1E2E0" transform="translate(0,0)"/>
<path d="" fill="#EFF0EE" transform="translate(0,0)"/>
<path d="" fill="#F8F8F6" transform="translate(0,0)"/>
<path d="" fill="#F8F9F6" transform="translate(0,0)"/>
<path d="" fill="#ECECEB" transform="translate(0,0)"/>
<path d="" fill="#FBFBFA" transform="translate(0,0)"/>
<path d="" fill="#F5F5F3" transform="translate(0,0)"/>
<path d="" fill="#FAFBF9" transform="translate(0,0)"/>
<path d="" fill="#F7F7F6" transform="translate(0,0)"/>
<path d="" fill="#F1F1F0" transform="translate(0,0)"/>
<path d="" fill="#FAFBF8" transform="translate(0,0)"/>
<path d="" fill="#E7D044" transform="translate(0,0)"/>
<path d="" fill="#E5E5E3" transform="translate(0,0)"/>
<path d="" fill="#FDFDFC" transform="translate(0,0)"/>
<path d="" fill="#FAFAF8" transform="translate(0,0)"/>
<path d="" fill="#FBFCF7" transform="translate(0,0)"/>
<path d="" fill="#E1E1E0" transform="translate(0,0)"/>
<path d="" fill="#D5B716" transform="translate(0,0)"/>
<path d="" fill="#D9C65A" transform="translate(0,0)"/>
<path d="" fill="#F4F4F0" transform="translate(0,0)"/>
<path d="" fill="#E0E0DF" transform="translate(0,0)"/>
<path d="" fill="#F2DD3F" transform="translate(0,0)"/>
<path d="" fill="#F6F6F4" transform="translate(0,0)"/>
<path d="" fill="#EBEBEA" transform="translate(0,0)"/>
<path d="" fill="#E8C717" transform="translate(0,0)"/>
<path d="" fill="#FEFEFB" transform="translate(0,0)"/>
<path d="" fill="#F0F0EE" transform="translate(0,0)"/>
<path d="" fill="#FBFBF9" transform="translate(0,0)"/>
<path d="" fill="#FAFAF8" transform="translate(0,0)"/>
<path d="" fill="#EBECEA" transform="translate(0,0)"/>
<path d="" fill="#F6F6F4" transform="translate(0,0)"/>
<path d="" fill="#FCFDFB" transform="translate(0,0)"/>
<path d="" fill="#EACF3E" transform="translate(0,0)"/>
<path d="" fill="#EBEBE7" transform="translate(0,0)"/>
<path d="" fill="#F4F4F3" transform="translate(0,0)"/>
<path d="" fill="#EBEBEA" transform="translate(0,0)"/>
<path d="" fill="#E7E7E5" transform="translate(0,0)"/>
<path d="" fill="#EBEBEA" transform="translate(0,0)"/>
<path d="" fill="#F7F7F5" transform="translate(0,0)"/>
<path d="" fill="#F8F8F5" transform="translate(0,0)"/>
<path d="" fill="#FAFBF8" transform="translate(0,0)"/>
<path d="" fill="#E2E2E0" transform="translate(0,0)"/>
<path d="" fill="#E3E3E1" transform="translate(0,0)"/>
<path d="" fill="#FAFAF9" transform="translate(0,0)"/>
<path d="" fill="#FDFDFC" transform="translate(0,0)"/>
<path d="" fill="#F8F9F7" transform="translate(0,0)"/>
<path d="" fill="#ECECEB" transform="translate(0,0)"/>
<path d="" fill="#FBFBFA" transform="translate(0,0)"/>
<path d="" fill="#E2E2E0" transform="translate(0,0)"/>
<path d="" fill="#F1F1F0" transform="translate(0,0)"/>
<path d="" fill="#E1C217" transform="translate(0,0)"/>
<path d="" fill="#E7C618" transform="translate(0,0)"/>
<path d="" fill="#EED447" transform="translate(0,0)"/>
<path d="" fill="#F4DF5E" transform="translate(0,0)"/>
<path d="" fill="#E6D05A" transform="translate(0,0)"/>
<path d="" fill="#FBFBF9" transform="translate(0,0)"/>
<path d="" fill="#E3C318" transform="translate(0,0)"/>
<path d="" fill="#FCFDFB" transform="translate(0,0)"/>
<path d="" fill="#F8F9F8" transform="translate(0,0)"/>
<path d="" fill="#FDFDFD" transform="translate(0,0)"/>
<path d="" fill="#F9F9F8" transform="translate(0,0)"/>
<path d="" fill="#ECECEB" transform="translate(0,0)"/>
<path d="" fill="#EDEDEC" transform="translate(0,0)"/>
<path d="" fill="#F9F9F8" transform="translate(0,0)"/>
<path d="" fill="#FAFAF9" transform="translate(0,0)"/>
<path d="" fill="#ECECEB" transform="translate(0,0)"/>
<path d="" fill="#EBEBEA" transform="translate(0,0)"/>
<path d="" fill="#F2F2F1" transform="translate(0,0)"/>
<path d="" fill="#FBFBFB" transform="translate(0,0)"/>
<path d="" fill="#EFEFEE" transform="translate(0,0)"/>
<path d="" fill="#F5F5F4" transform="translate(0,0)"/>
<path d="" fill="#ECD445" transform="translate(0,0)"/>
<path d="" fill="#E2E3E1" transform="translate(0,0)"/>
<path d="" fill="#EDEDEB" transform="translate(0,0)"/>
<path d="" fill="#E9E9E7" transform="translate(0,0)"/>
<path d="" fill="#F0F0EE" transform="translate(0,0)"/>
<path d="" fill="#E3E4E1" transform="translate(0,0)"/>
<path d="" fill="#FBFBFB" transform="translate(0,0)"/>
<path d="" fill="#F0F1EF" transform="translate(0,0)"/>
<path d="" fill="#FBFCFB" transform="translate(0,0)"/>
<path d="" fill="#F4F2E8" transform="translate(0,0)"/>
<path d="" fill="#FAFAF7" transform="translate(0,0)"/>
<path d="" fill="#EDEDEB" transform="translate(0,0)"/>
<path d="" fill="#E2E3E1" transform="translate(0,0)"/>
<path d="" fill="#F2F2F1" transform="translate(0,0)"/>
<path d="" fill="#E2E2E1" transform="translate(0,0)"/>
<path d="" fill="#D5B815" transform="translate(0,0)"/>
<path d="" fill="#F0D33A" transform="translate(0,0)"/>
<path d="" fill="#D8C13E" transform="translate(0,0)"/>
<path d="" fill="#ECECE7" transform="translate(0,0)"/>
<path d="" fill="#F2F2F1" transform="translate(0,0)"/>
<path d="" fill="#F2F2F1" transform="translate(0,0)"/>
<path d="" fill="#ECECEB" transform="translate(0,0)"/>
<path d="" fill="#F2F2F0" transform="translate(0,0)"/>
<path d="" fill="#F9FAF8" transform="translate(0,0)"/>
<path d="" fill="#F2F2F1" transform="translate(0,0)"/>
<path d="" fill="#F0F0EF" transform="translate(0,0)"/>
<path d="" fill="#E2E3E1" transform="translate(0,0)"/>
<path d="" fill="#ECECEB" transform="translate(0,0)"/>
<path d="" fill="#E7E7E4" transform="translate(0,0)"/>
<path d="" fill="#D5B816" transform="translate(0,0)"/>
<path d="" fill="#FAE554" transform="translate(0,0)"/>
<path d="" fill="#FBE65B" transform="translate(0,0)"/>
<path d="" fill="#E2E2DE" transform="translate(0,0)"/>
<path d="" fill="#EDEDEB" transform="translate(0,0)"/>
<path d="" fill="#ECECEB" transform="translate(0,0)"/>
<path d="" fill="#ECEDEB" transform="translate(0,0)"/>
</svg>